<?xml version="1.0" standalone="no"?>
<!DOCTYPE svg PUBLIC "-//W3C//DTD SVG 20010904//EN"
 "http://www.w3.org/TR/2001/REC-SVG-20010904/DTD/svg10.dtd">
<svg version="1.0" xmlns="http://www.w3.org/2000/svg"
 width="260.000000pt" height="260.000000pt" viewBox="0 0 260.000000 260.000000"
 preserveAspectRatio="xMidYMid meet">
<metadata>
Created by potrace 1.11, written by Peter Selinger 2001-2013
</metadata>
<g transform="translate(0.000000,260.000000) scale(0.100000,-0.100000)"
fill="#000000" stroke="none">
<path d="M1155 2429 c-22 -4 -55 -9 -73 -12 -18 -3 -72 -18 -120 -33 -371
-117 -674 -439 -766 -814 -28 -117 -35 -183 -31 -315 4 -132 5 -141 31 -254
85 -373 406 -708 784 -821 151 -45 348 -61 498 -39 234 33 470 151 641 319
181 177 278 361 337 635 3 17 7 89 9 160 4 173 -18 307 -75 450 -28 70 -96
203 -109 215 -3 3 -20 25 -36 50 -17 25 -69 84 -117 131 -171 171 -384 281
-623 323 -85 14 -283 17 -350 5z"/>
</g>
</svg>
